<svg id="plus" xmlns="http://www.w3.org/2000/svg" width="48.196" height="48.196" viewBox="0 0 48.196 48.196">
  <g id="Сгруппировать_69" data-name="Сгруппировать 69">
    <g id="Сгруппировать_68" data-name="Сгруппировать 68">
      <path id="Контур_43" data-name="Контур 43" d="M24.1,0A24.1,24.1,0,1,0,48.2,24.1,24.124,24.124,0,0,0,24.1,0Zm0,44.462A20.365,20.365,0,1,1,44.462,24.1,20.388,20.388,0,0,1,24.1,44.462Z" fill="#00a3af"/>
    </g>
  </g>
  <g id="Сгруппировать_71" data-name="Сгруппировать 71" transform="translate(12.898 12.73)">
    <g id="Сгруппировать_70" data-name="Сгруппировать 70">
      <path id="Контур_44" data-name="Контур 44" d="M157.555,144.571h-7.466V137.1a1.867,1.867,0,0,0-3.733,0v7.466h-7.466a1.867,1.867,0,0,0,0,3.733h7.466v7.466a1.867,1.867,0,1,0,3.733,0V148.3h7.466a1.867,1.867,0,1,0,0-3.733Z" transform="translate(-137.022 -135.238)" fill="#00a3af"/>
    </g>
  </g>
</svg>
