<svg xmlns="http://www.w3.org/2000/svg" width="48.196" height="48.196" viewBox="0 0 48.196 48.196">
  <defs>
    <style>
      .cls-1 {
        fill: #00a3af;
      }
    </style>
  </defs>
  <path id="Plus123" class="cls-1" d="M682,2789.2a24.1,24.1,0,1,1,24.1,24.1A24.124,24.124,0,0,1,682,2789.2Zm3.733,0a20.364,20.364,0,1,0,20.364-20.365A20.388,20.388,0,0,0,685.733,2789.2Zm18.5,9.166v-7.466h-7.466a1.867,1.867,0,0,1,0-3.733h7.466V2779.7a1.867,1.867,0,1,1,3.733,0v7.466h7.466a1.867,1.867,0,0,1,0,3.733h-7.466v7.466a1.867,1.867,0,1,1-3.733,0Z" transform="translate(-682 -2765.098)"/>
</svg>
