<svg xmlns="http://www.w3.org/2000/svg" width="39.5" height="39.5" viewBox="0 0 39.5 39.5"><g transform="translate(9.379 4.963)"><path d="M150.56,64.765a1.488,1.488,0,0,0-2.1,0L130.6,82.574l-6.444-7a1.489,1.489,0,0,0-2.19,2.017l7.493,8.138a1.487,1.487,0,0,0,1.063.48h.032a1.49,1.49,0,0,0,1.051-.434L150.557,66.87A1.488,1.488,0,0,0,150.56,64.765Z" transform="translate(-121.568 -64.327)" fill="#00a3af"/></g><path d="M38.011,18.261a1.489,1.489,0,0,0-1.489,1.489A16.773,16.773,0,1,1,19.75,2.977,1.489,1.489,0,1,0,19.75,0,19.75,19.75,0,1,0,39.5,19.75,1.489,1.489,0,0,0,38.011,18.261Z" fill="#00a3af"/></svg>